<?xml version="1.0" standalone="no"?>
<!DOCTYPE svg PUBLIC "-//W3C//DTD SVG 20010904//EN"
 "http://www.w3.org/TR/2001/REC-SVG-20010904/DTD/svg10.dtd">
<svg version="1.0" xmlns="http://www.w3.org/2000/svg"
 width="598.000000pt" height="598.000000pt" viewBox="0 0 598.000000 598.000000"
 preserveAspectRatio="xMidYMid meet">
<metadata>
Created by potrace 1.11, written by Peter Selinger 2001-2013
</metadata>
<g transform="translate(0.000000,598.000000) scale(0.100000,-0.100000)"
fill="#000000" stroke="none">
<path d="M2747 5639 c-761 -55 -1465 -367 -1972 -874 -145 -144 -222 -237
-331 -401 -207 -311 -335 -646 -385 -1014 -17 -122 -17 -448 0 -570 50 -368
178 -703 385 -1014 109 -164 186 -257 331 -401 1028 -1028 2777 -1177 4017
-343 202 135 451 361 598 542 287 355 471 774 531 1216 17 122 17 448 0 570
-50 368 -178 703 -385 1014 -109 164 -186 257 -331 401 -619 619 -1524 941
-2458 874z m644 -84 c667 -64 1164 -269 1548 -639 338 -327 556 -768 640
-1296 18 -113 33 -382 26 -465 -21 -249 -130 -484 -315 -679 -342 -360 -896
-568 -1735 -651 -213 -22 -789 -31 -1015 -16 -1250 79 -1966 499 -2126 1249
-34 159 -16 459 41 702 56 235 163 506 268 683 392 657 1023 1024 1912 1112
183 18 569 18 756 0z"/>
<path d="M2663 5410 c-343 -33 -639 -114 -902 -246 -188 -95 -308 -181 -451
-324 -140 -140 -230 -264 -315 -435 -164 -330 -225 -658 -176 -944 26 -150 93
-356 160 -492 259 -522 749 -860 1416 -978 233 -42 294 -46 630 -46 260 1 356
5 455 19 450 63 786 189 1062 396 116 87 270 242 341 342 221 310 346 724 315
1038 -37 382 -210 773 -464 1048 -303 329 -724 528 -1285 608 -133 18 -641 28
-786 14z m587 -1170 c320 -14 525 -42 748 -101 459 -121 722 -357 748 -672 8
-89 -24 -291 -67 -420 -155 -469 -507 -789 -1021 -927 -202 -54 -363 -73 -628
-74 -228 0 -327 7 -503 40 -535 97 -936 382 -1155 819 -79 159 -132 354 -132
487 1 367 322 646 890 772 214 47 520 78 850 84 36 1 157 -3 270 -8z"/>
<path d="M2745 3163 c-233 -10 -518 -52 -669 -100 -229 -71 -372 -201 -353
-320 19 -115 152 -279 293 -361 206 -119 451 -181 809 -204 544 -34 995 71
1248 291 157 135 226 281 183 384 -28 69 -136 148 -266 196 -252 92 -727 136
-1245 114z"/>
<path d="M4829 992 c-30 -22 -99 -66 -154 -99 -643 -387 -1448 -536 -2230
-411 -325 51 -655 157 -949 305 -105 52 -269 150 -339 200 l-47 35 -37 -28
c-117 -89 -333 -306 -333 -334 0 -21 63 -79 118 -108 207 -110 631 -182 1322
-224 279 -17 1388 -17 1670 0 820 49 1275 146 1384 294 26 36 19 50 -76 158
-64 73 -243 239 -267 248 -4 1 -32 -15 -62 -36z"/>
</g>
</svg>
